<?xml version="1.0" encoding="UTF-8" standalone="no"?>
<!-- Created with Inkscape (http://www.inkscape.org/) -->

<svg
   xmlns:dc="http://purl.org/dc/elements/1.1/"
   xmlns:cc="http://creativecommons.org/ns#"
   xmlns:rdf="http://www.w3.org/1999/02/22-rdf-syntax-ns#"
   xmlns:svg="http://www.w3.org/2000/svg"
   xmlns="http://www.w3.org/2000/svg"
   xmlns:sodipodi="http://sodipodi.sourceforge.net/DTD/sodipodi-0.dtd"
   xmlns:inkscape="http://www.inkscape.org/namespaces/inkscape"
   id="svg3371"
   version="1.1"
   inkscape:version="0.91 r13725"
   width="64"
   height="64"
   viewBox="0 0 64 64"
   sodipodi:docname="canal-web.svg">
  <metadata
     id="metadata3377">
    <rdf:RDF>
      <cc:Work
         rdf:about="">
        <dc:format>image/svg+xml</dc:format>
        <dc:type
           rdf:resource="http://purl.org/dc/dcmitype/StillImage" />
        <dc:title></dc:title>
      </cc:Work>
    </rdf:RDF>
  </metadata>
  <defs
     id="defs3375" />
  <sodipodi:namedview
     pagecolor="#ffffff"
     bordercolor="#666666"
     borderopacity="1"
     objecttolerance="10"
     gridtolerance="10"
     guidetolerance="10"
     inkscape:pageopacity="0"
     inkscape:pageshadow="2"
     inkscape:window-width="1920"
     inkscape:window-height="1031"
     id="namedview3373"
     showgrid="false"
     fit-margin-top="0"
     fit-margin-left="0"
     fit-margin-right="0"
     fit-margin-bottom="0"
     inkscape:zoom="8"
     inkscape:cx="45.395092"
     inkscape:cy="36.290176"
     inkscape:window-x="0"
     inkscape:window-y="0"
     inkscape:window-maximized="1"
     inkscape:current-layer="svg3371" />
  <rect
     style="fill:#ffffff"
     id="rect11675"
     width="64"
     height="64"
     x="0"
     y="0" />
  <path
     style="fill:#000000"
     d="m 12.000001,64 -4,0 0,-2 0,-2 2,0 2,0 0,-2 0,-2 1.999998,0 2,0 0,-2 0,-2 2,0 2,0 0,-2 0,-2 2,0 2,0 0,-2 0,-2 L 26,44 l 2,0 0,-2 0,-2 2.000001,0 2,0 0,-2 0,-2 2,0 2,0 0,-2.000001 0,-2 -18.000002,0 -17.999999,0 0,-2 0,-2 2,0 2,0 0,-2 0,-2 -2,0 -2,0 0,-2 0,-2 2,0 2,0 L 4,18 4,16 2,16 0,16 0,11.999999 0,8 2,8 4,8 4,6 4,4 l 2,0 2.000001,0 0,-2 0,-2 2,0 2,0 0,2 0,2 1.999998,0 2,0 0,-2 0,-2 2,0 2,0 0,4 0,4 2,0 2,0 0,-2 0,-2 L 26,4 l 2,0 0,-2 0,-2 2.000001,0 2,0 0,4 0,4 2,0 2,0 0,-2 0,-2 2,0 2,0 0,-2 0,-2 2,0 2,0 0,2 0,2 2,0 2,0 0,-2 0,-2 4,0 4,0 0,2 0,2 2,0 2,0 0,-2 0,-2 L 62,0 l 2,0 0,4 0,4 -11.999999,0 -12,0 0,11.999999 0,12 2,0 2,0 0,-2 0,-2 2,0 2,0 0,-2 0,-2 2,0 2,0 0,-2 0,-2 2,0 2,0 0,-1.999999 0,-2 2,0 2,0 0,-2 0,-2.000001 1.999999,0 2,0 L 64,16 l 0,3.999999 -2,0 -1.999999,0 0,12 0,12.000001 L 62,44 l 2,0 0,2 0,2 -5.999999,0 -6,0 0,8 0,8 -4,0 -4,0 0,-2 0,-2 2,0 2,0 0,-2 0,-2 -4,0 -4,0 0,4 0,4 -6,0 L 28,64 l 0,-2 0,-2 2.000001,0 2,0 0,-2 0,-2 2,0 2,0 0,-2 0,-2 -6,0 -6.000002,0 0,6 0,6 -2,0 -2,0 0,-2 0,-2 -2,0 -2,0 0,2 0,2 -3.999998,0 z m 30,-12 2,0 0,-2 0,-2 2,0 2,0 0,-2 0,-2 2,0 2,0 0,-2 0,-2 2,0 2,0 0,-2 0,-2 -8,0 -8,0 0,8 0,8 2,0 z m -8,-4 2,0 0,-2 0,-2 -2,0 -2,0 0,2 0,2 2,0 z m 20,-16.000001 2,0 0,-2 0,-2 -2,0 -2,0 0,2 0,2 2,0 z m -44,-4 2,0 0,-2 0,-2 1.999998,0 2,0 0,-2 0,-2 -3.999998,0 -4,0 0,4 0,4 2,0 z m 11.999998,0 2,0 0,-2 0,-2 2.000001,0 2,0 0,-2 0,-2 2.000001,0 2,0 0,-1.999999 0,-2 2,0 2,0 0,-2 0,-2.000001 -8.000001,0 -8.000001,0 0,8 0,8 2,0 z m 12.000002,0 2,0 0,-2 0,-2 -2,0 -2,0 0,2 0,2 2,0 z m -24,-11.999999 2,0 0,-2 0,-2.000001 1.999998,0 2,0 0,-2 0,-1.999999 -3.999998,0 -4,0 0,3.999999 0,4.000001 2,0 z"
     id="path11671"
     inkscape:connector-curvature="0" />
</svg>
